<svg width="290" height="124" viewBox="0 0 290 124" fill="none" xmlns="http://www.w3.org/2000/svg">
<path d="M88.3088 10.2124H123.548C139.603 10.2124 151.256 12.4973 158.51 17.0659C165.766 21.6321 169.394 28.8932 169.394 38.8501C169.394 45.6089 167.805 51.1554 164.629 55.4896C161.455 59.825 157.236 62.4308 151.97 63.3083V64.0795C159.145 65.6809 164.322 68.6747 167.499 73.062C170.675 77.447 172.264 83.2752 172.264 90.5466C172.264 100.867 168.532 108.917 161.07 114.695C153.608 120.475 143.474 123.364 130.67 123.364H88.3088V10.2124ZM112.318 55.0232H126.256C132.763 55.0232 137.474 54.0187 140.389 52.0075C143.306 49.9939 144.766 46.6665 144.766 42.0228C144.766 37.6886 143.177 34.5805 140.001 32.6986C136.827 30.8144 131.807 29.8722 124.939 29.8722H112.318V55.0232ZM112.318 74.0642V103.552H127.962C134.57 103.552 139.448 102.289 142.598 99.76C145.746 97.2327 147.321 93.3626 147.321 88.1498C147.321 78.7598 140.608 74.0642 127.185 74.0642H112.318Z" fill="#0A1A32" fill-opacity="0.94"/>
<path d="M88.3564 85.9312H100.557V123.394H88.3564V85.9312Z" fill="#13C4D7" fill-opacity="0.9"/>
<path d="M100.558 106.326H111.872V123.395H100.558V106.326Z" fill="white"/>
<path d="M24.0089 60.4462H31.7499C39.3408 60.4462 44.9444 59.1831 48.5585 56.6546C52.1725 54.1238 53.9795 50.151 53.9795 44.735C53.9795 39.3686 52.1332 35.5516 48.4429 33.2817C44.7515 31.0095 39.0335 29.8735 31.2878 29.8735H24.0089V60.4462ZM24.0089 79.949V123.365H0V10.2136H32.9931C48.3794 10.2136 59.7634 13.0146 67.1463 18.6142C74.528 24.2115 78.2195 32.7114 78.2195 44.1115C78.2195 50.7687 76.3859 56.6904 72.7199 61.8778C69.0561 67.063 63.8673 71.1259 57.1545 74.0654C74.1918 99.5026 85.2927 115.937 90.4573 123.365H63.8142L36.7874 79.949H24.0089Z" fill="#0A1A32" fill-opacity="0.94"/>
<path d="M202.94 56.8841L209.876 53.4989C216.67 50.1807 221.132 46.5993 223.265 42.7569C225.397 38.9122 225.277 34.563 222.905 29.7104C220.553 24.9051 217.227 22.2923 212.927 21.8732C208.625 21.4553 203.009 22.9389 196.077 26.3252L189.556 29.5072L202.94 56.8841ZM211.48 74.3457L230.493 113.231L208.989 123.733L159.442 22.4043L188.987 7.97695C202.769 1.25048 214.19 -1.22258 223.251 0.560058C232.315 2.3427 239.345 8.34064 244.339 18.5527C247.253 24.5137 248.204 30.619 247.191 36.8686C246.18 43.116 243.313 49.0227 238.59 54.5888C264.988 69.9191 282.125 79.7813 290 84.1779L266.144 95.8251L222.923 68.7576L211.48 74.3457Z" fill="#0A1A32" fill-opacity="0.94"/>
</svg>
