<svg width="201" height="201" viewBox="0 0 201 201" fill="none" xmlns="http://www.w3.org/2000/svg">
<path d="M231.855 -32.7579C232.77 -32.5135 233.48 -31.8022 233.723 -30.8967L247.41 20.0531C247.653 20.9582 247.395 21.9252 246.728 22.5902L209.335 59.8881C208.667 60.5537 207.692 60.8153 206.777 60.5707L155.697 46.9188C154.783 46.6744 154.072 45.9631 153.829 45.0576L140.142 -5.89222C139.899 -6.7973 140.158 -7.76432 140.825 -8.42932L178.218 -45.7272C178.885 -46.3929 179.86 -46.6544 180.775 -46.4098L231.855 -32.7579ZM94.3027 105.081L94.9482 102.666L94.3027 105.081C95.2172 105.326 95.9276 106.037 96.1709 106.942L109.858 157.892C110.101 158.797 109.842 159.764 109.175 160.429L71.7822 197.727C71.1148 198.393 70.1398 198.654 69.2249 198.41L18.1448 184.758C17.2303 184.513 16.5199 183.802 16.2766 182.897L2.58978 131.947C2.34665 131.042 2.60546 130.075 3.27216 129.41L40.6653 92.1119C41.3327 91.4463 42.3077 91.1847 43.2227 91.4293L94.3027 105.081ZM204.874 74.1275C205.789 74.3719 206.499 75.0831 206.742 75.9887L220.429 126.938C220.672 127.844 220.413 128.811 219.747 129.476L182.354 166.773C181.686 167.439 180.711 167.701 179.796 167.456L128.716 153.804C127.802 153.56 127.091 152.849 126.848 151.943L113.161 100.993C112.918 100.088 113.177 99.1211 113.844 98.456L151.237 61.1582C151.904 60.4925 152.879 60.231 153.794 60.4755L204.874 74.1275ZM122.15 -5.03005C123.065 -4.78563 123.775 -4.07441 124.018 -3.16885L137.705 47.781C137.948 48.6861 137.689 49.6531 137.023 50.318L99.6295 87.6159C98.9621 88.2816 97.9871 88.5431 97.0722 88.2986L45.9921 74.6466C45.0776 74.4022 44.3672 73.691 44.1239 72.7854L30.4371 21.8356C30.194 20.9305 30.4528 19.9635 31.1195 19.2985L68.5126 -17.9993C69.18 -18.665 70.155 -18.9266 71.07 -18.682L122.15 -5.03005Z" stroke="white" stroke-opacity="0.08" stroke-width="5"/>
</svg>
