<svg width="141" height="139" viewBox="0 0 141 139" fill="none" xmlns="http://www.w3.org/2000/svg">
<path d="M85.5827 -2.90436L87.9971 -3.55294L85.5827 -2.90435L95.1087 32.5567C95.2073 32.9236 95.1027 33.3163 94.8311 33.5873L68.8054 59.5466C68.5331 59.8183 68.1338 59.9259 67.7585 59.8256L67.1129 62.2408L67.7585 59.8256L32.2068 50.3238C31.8318 50.2236 31.5429 49.9328 31.4442 49.5655L21.9182 14.1044C21.8196 13.7376 21.9242 13.3448 22.1959 13.0738L48.2215 -12.8854C48.4939 -13.1571 48.8931 -13.2648 49.2685 -13.1644L84.8202 -3.66269C85.1951 -3.56248 85.484 -3.27166 85.5827 -2.90436ZM161.175 -22.9613C161.55 -22.8611 161.839 -22.5702 161.938 -22.2029L171.464 13.2581C171.562 13.625 171.458 14.0177 171.186 14.2887L145.16 40.248C144.888 40.5197 144.489 40.6273 144.113 40.527L108.562 31.0252C108.187 30.925 107.898 30.6342 107.799 30.2669L98.273 -5.19416C98.1744 -5.56101 98.279 -5.95374 98.5507 -6.22472L124.576 -32.184C124.849 -32.4557 125.248 -32.5633 125.623 -32.463L161.175 -22.9613ZM65.4384 72.9748C65.8134 73.075 66.1023 73.3658 66.201 73.7331L75.727 109.194C75.8256 109.561 75.721 109.954 75.4493 110.225L49.4237 136.184C49.1513 136.456 48.7521 136.563 48.3767 136.463L12.825 126.961C12.4501 126.861 12.1612 126.57 12.0625 126.203L2.53647 90.7419C2.43792 90.375 2.54246 89.9823 2.81414 89.7113L28.8398 63.752C29.1121 63.4803 29.5114 63.3727 29.8868 63.473L65.4384 72.9748ZM106.844 41.9292L107.49 39.514L106.844 41.9292L142.396 51.431C142.771 51.5312 143.06 51.822 143.159 52.1893L152.685 87.6504C152.783 88.0172 152.679 88.4099 152.407 88.6809L126.381 114.64C126.109 114.912 125.71 115.02 125.334 114.919L89.7827 105.417C89.4078 105.317 89.1188 105.026 89.0202 104.659L79.4941 69.1981C79.3956 68.8312 79.5001 68.4385 79.7718 68.1675L105.797 42.2082C106.07 41.9365 106.469 41.8289 106.844 41.9292Z" stroke="url(#paint0_linear_2876_5272)" stroke-opacity="0.1" stroke-width="5"/>
<defs>
<linearGradient id="paint0_linear_2876_5272" x1="5.03061" y1="-25.2347" x2="187.986" y2="57.5137" gradientUnits="userSpaceOnUse">
<stop offset="0.171875" stop-color="#0057D9"/>
<stop offset="0.427083" stop-color="#20A0FD"/>
<stop offset="0.71875" stop-color="#51FBE6"/>
<stop offset="1" stop-color="#00F49A"/>
</linearGradient>
</defs>
</svg>
