<svg width="200" height="200" viewBox="0 0 200 200" fill="none" xmlns="http://www.w3.org/2000/svg">
<path d="M181.943 16.7483C182.806 16.9795 183.48 17.6534 183.711 18.5161L197.016 68.1697C197.247 69.0324 197 69.953 196.368 70.5845L160.02 106.934C159.388 107.565 158.467 107.812 157.605 107.581L107.951 94.2759C107.088 94.0447 106.414 93.3709 106.183 92.5081L92.8787 42.8545C92.6475 41.9918 92.8942 41.0713 93.5257 40.4397L129.875 4.09075C130.506 3.45919 131.427 3.21253 132.29 3.4437L181.943 16.7483ZM48.2318 151.081C49.0945 151.312 49.7684 151.986 49.9995 152.848L63.3042 202.502C63.5353 203.365 63.2887 204.285 62.6571 204.917L26.3082 241.266C25.6766 241.897 24.7561 242.144 23.8934 241.913L-25.7603 228.608C-26.623 228.377 -27.2969 227.703 -27.528 226.841L-40.8327 177.187C-41.0638 176.324 -40.8172 175.404 -40.1856 174.772L-3.83665 138.423C-3.20509 137.792 -2.28456 137.545 -1.42185 137.776L48.2318 151.081ZM155.715 120.914C156.578 121.146 157.252 121.82 157.483 122.682L170.788 172.336C171.019 173.199 170.772 174.119 170.141 174.751L133.792 211.1C133.16 211.731 132.24 211.978 131.377 211.747L81.7234 198.442C80.8607 198.211 80.1868 197.537 79.9556 196.674L66.651 147.021C66.4198 146.158 66.6665 145.237 67.298 144.606L103.647 108.257C104.279 107.625 105.199 107.379 106.062 107.61L155.715 120.914ZM75.3014 43.7708C76.1642 44.0019 76.8381 44.6758 77.0692 45.5385L90.3739 95.1921C90.605 96.0549 90.3584 96.9754 89.7268 97.6069L53.3778 133.956C52.7463 134.587 51.8258 134.834 50.963 134.603L1.30942 121.298C0.446686 121.067 -0.227184 120.393 -0.458351 119.531L-13.763 69.8769C-13.9942 69.0142 -13.7475 68.0937 -13.1159 67.4621L23.233 31.1132C23.8646 30.4816 24.7851 30.2349 25.6478 30.4661L75.3014 43.7708Z" stroke="url(#paint0_linear_3053_4886)" stroke-opacity="0.1" stroke-width="5"/>
<defs>
<linearGradient id="paint0_linear_3053_4886" x1="36.1051" y1="8.54797" x2="82.6742" y2="132.028" gradientUnits="userSpaceOnUse">
<stop offset="0.171875" stop-color="#0057D9"/>
<stop offset="0.427083" stop-color="#20A0FD"/>
<stop offset="0.71875" stop-color="#51FBE6"/>
<stop offset="1" stop-color="#00F49A"/>
</linearGradient>
</defs>
</svg>
